<svg xmlns="http://www.w3.org/2000/svg" xmlns:xlink="http://www.w3.org/1999/xlink" viewBox="0 0 274.81 244.63"><defs><style>.cls-1{opacity:0.75;fill:url(#linear-gradient);}.cls-2{fill:url(#linear-gradient-2);}.cls-3{fill:url(#linear-gradient-3);}.cls-4{fill:url(#linear-gradient-4);}.cls-5{fill:url(#linear-gradient-5);}.cls-6{fill:url(#linear-gradient-6);}.cls-7{fill:url(#linear-gradient-7);}.cls-8{opacity:0.41;}.cls-9{fill:#ff8fae;}</style><linearGradient id="linear-gradient" x1="51.26" y1="121.01" x2="223.86" y2="121.01" gradientUnits="userSpaceOnUse"><stop offset="0" stop-color="#ff009a"/><stop offset="0" stop-color="#fd0991"/><stop offset="0" stop-color="#f92379"/><stop offset="0" stop-color="#f24c51"/><stop offset="0" stop-color="#e9851b"/><stop offset="0" stop-color="#e59e03"/><stop offset="0.5" stop-color="#e5c500"/><stop offset="1" stop-color="#bf6f00"/></linearGradient><linearGradient id="linear-gradient-2" x1="15.25" y1="122.32" x2="259.88" y2="122.32" xlink:href="#linear-gradient"/><linearGradient id="linear-gradient-3" x1="151.5" y1="146.51" x2="274.7" y2="146.51" gradientUnits="userSpaceOnUse"><stop offset="0" stop-color="#ff009a"/><stop offset="0.07" stop-color="#fd0991"/><stop offset="0.18" stop-color="#f92379"/><stop offset="0.32" stop-color="#f24c51"/><stop offset="0.49" stop-color="#e9851b"/><stop offset="0.55" stop-color="#e59e03"/><stop offset="0.87" stop-color="#e5c500"/><stop offset="0.99" stop-color="#bf6f00"/></linearGradient><linearGradient id="linear-gradient-4" x1="147.37" y1="92.91" x2="234.65" y2="92.91" xlink:href="#linear-gradient-3"/><linearGradient id="linear-gradient-5" x1="112.25" y1="70.63" x2="162.67" y2="70.63" xlink:href="#linear-gradient-3"/><linearGradient id="linear-gradient-6" x1="40.41" y1="92.72" x2="127.37" y2="92.72" xlink:href="#linear-gradient-3"/><linearGradient id="linear-gradient-7" x1="0" y1="146.24" x2="123.2" y2="146.24" xlink:href="#linear-gradient-3"/></defs><g id="Layer_2" data-name="Layer 2"><g id="Layer_3" data-name="Layer 3"><path class="cls-1" d="M137.56,34.71a86.3,86.3,0,1,0,86.3,86.3A86.3,86.3,0,0,0,137.56,34.71Zm-.15,163.81A77.52,77.52,0,1,1,214.93,121,77.51,77.51,0,0,1,137.41,198.52Z"/><path class="cls-2" d="M137.56,0A122.32,122.32,0,1,0,259.88,122.32,122.31,122.31,0,0,0,137.56,0Zm-.21,232.19A109.87,109.87,0,1,1,247.22,122.32,109.87,109.87,0,0,1,137.35,232.19Z"/></g><g id="Layer_1-2" data-name="Layer 1"><path class="cls-3" d="M274.7,146.63a87.81,87.81,0,0,1-123.2-.22l.17-.16a97.27,97.27,0,0,0,60.34-25h1.13a87.19,87.19,0,0,1,61.56,25.35Z"/><path class="cls-4" d="M234.65,49.43a87.49,87.49,0,0,1-26.4,61.84,97.4,97.4,0,0,0-60.73,25.12h-.15v-.22h0a97.41,97.41,0,0,0,25.06-60.28A87.53,87.53,0,0,1,234.65,49.43Z"/><path class="cls-5" d="M162.67,71.41a97.35,97.35,0,0,0-25.19,60.72l-.1.1-.16-.17a97.19,97.19,0,0,0-25-60.35v0c0-.36,0-.72,0-1.08A87.25,87.25,0,0,1,137.6,9,87.54,87.54,0,0,1,162.67,71.41Z"/><path class="cls-6" d="M127.37,136.22v.14h-.22a97.46,97.46,0,0,0-60.29-25.06A87.45,87.45,0,0,1,40.41,49.08a87.45,87.45,0,0,1,61.83,26.4A97.43,97.43,0,0,0,127.37,136.22Z"/><path class="cls-7" d="M123.2,146.35A87.79,87.79,0,0,1,0,146.13,87.22,87.22,0,0,1,61.65,121h.69a97.34,97.34,0,0,0,60.76,25.23Z"/><g class="cls-8"><path class="cls-9" d="M212.17,134.37h0a97.33,97.33,0,0,1-60.34,25l-.17.16a87.81,87.81,0,0,0,123.2.2,87.12,87.12,0,0,0-61.56-25.34Z"/><path class="cls-9" d="M147.48,149.26v.22h.15a97.41,97.41,0,0,1,60.73-25.13A87.55,87.55,0,0,0,234.75,62.5,87.58,87.58,0,0,0,172.54,89a97.43,97.43,0,0,1-25,60.29Z"/><path class="cls-9" d="M112.36,84.8a97.2,97.2,0,0,1,25,60.35l.16.17.1-.1A97.34,97.34,0,0,1,162.77,84.5a87.55,87.55,0,0,0-25.08-62.38,87.25,87.25,0,0,0-25.34,61.56c0,.36,0,.72,0,1.08Z"/><path class="cls-9" d="M127.26,149.44h.22v-.14a97.42,97.42,0,0,1-25.14-60.73A87.4,87.4,0,0,0,40.51,62.19,87.39,87.39,0,0,0,67,124.39,97.45,97.45,0,0,1,127.26,149.44Z"/><path class="cls-9" d="M62.45,134.12h-.69A87.27,87.27,0,0,0,.11,159.24a87.79,87.79,0,0,0,123.2.2l-.1-.1A97.28,97.28,0,0,1,62.45,134.12Z"/></g></g></g></svg>